
        <svg xmlns="http://www.w3.org/2000/svg" xmlns:xlink="http://www.w3.org/1999/xlink" version="1.1" width="3194.9238578680206" 
        height="3144.266899760408" viewBox="0 0 3194.9238578680206 3144.266899760408">
			<rect fill="#111111" width="3194.9238578680206" height="3144.266899760408"/>
			<g transform="scale(9.746192893401016) translate(10, 10)">
				<defs id="SvgjsDefs1116"></defs><g id="SvgjsG1117" featureKey="rootContainer" transform="matrix(2.887546738985116,0,0,2.887546738985116,0,-0.2887546782012916)" fill="#ffffff"><g xmlns="http://www.w3.org/2000/svg"><path d="M90.8 84.8l-.7.8a53.7 53.7 0 0 1-6 5.7l-1.4 1.1-.7.5-.7.5-.7.5-.8.5-.8.5-.8.5-1.6.9-.4.2-.4.2-.8.4-.8.4-.8.4-1.6.8-2.1.9-1.4.5-1.3.5-1.3.4-.6.2h-.6l-1.2.3-.6.2h-.6l-2.3.5-2.7.4-1.5.3h2.3l2.2-.3 2.1-.4.9-.2.9-.2.8-.2.8-.2 1.4-.3 1.3-.4 1.7-.6a59.2 59.2 0 0 0 7.2-3.3l1.7-1 1.6-1L82 94l.8-.5.8-.6 2.1-1.7 1.1-.9 1-.9.5-.5.5-.5 1-1.1.5-.5.5-.5.9-1.1.2-.3.2-.3.4-.6.9-1.1.8-1.2.4-.6.2-.3.2-.3 1-1.6.9-1.6.5-.8.4-.8.4-.8.2-.4.2-.4.8-1.7.4-.9.3-.9.3-.9.3-.9.3-.9.2-.5v-.5l.6-1.9.5-2c.2-.7.3-1.3.4-2l.2-1c.1-.3.1-.7.1-1l.2-1.6c0-.5.1-1 .1-1.3V54c0-.4 0-1.2-.1-1.6s-.1-1.1-.3.1v1.6c0 .3 0 .5-.1.8v2.5l-.2 1.7a52 52 0 0 1-2.2 8.9 61.2 61.2 0 0 1-3.7 8.5l-.6 1.1-.4.6-.4.6-.5.9-.3.4-.3.4-1.2 1.7-1.5 1.8zm-80.2-2.4l-.3-.5-.9-1.3L9 80l-.4-.6-.7-1.2-.8-1.4a54.8 54.8 0 0 1-3.3-7.5l-.5-1.6-.3-.8-.2-.9-.5-1.7-.4-1.7-.2-.8V61l-.3-1.6-.2-1.6V57c0-.3 0-.5-.1-.8V48.9a48.6 48.6 0 0 1 4.1-18.4l.3-.6.3-.6.7-1.3.3-.6.3-.6.7-1.2.7-1.1.7-1.1.7-1 .7-1 .5-.7.5-.7.9-1.2.8-1 .4-.5.4-.5c1.3-1.4 1-1.4-.6.2a50.8 50.8 0 0 0-6.7 8.7l-.5.8-.3.4-.2.4-.8 1.8c-.6 1.2-1.1 2.4-1.6 3.6l-.4.9-.3.9-.6 1.9-.5 1.9v.9l-.2.9-.2 1-.2 1-.2 1v1.1l-.5 2.4-.1 2.6v2.5H0v5.9l.3 2.1.4 2.1v1l.2 1 .2 1 .3 1a52 52 0 0 0 2.2 6.3l.7 1.6.3.7.3.6.6 1.2.2.3.2.3.3.5.6.9.3.5.4.5.7 1 .3.4.3.4.8 1 .5.6.4.3c.1.1.1 0 0-.2z"></path><path d="M73.6 100.9l-.7.2-.7.2-1.5.5-.8.2-.8.2-1.7.4-1.7.4-.8.2h-.8l-1.6.3h-1l-1.3.2h-1.3a56.2 56.2 0 0 1-10.9.3 44.2 44.2 0 0 1-10.5-2.4l-1.3-.5-.7-.3h-.3l2.8.9a48 48 0 0 0 9.2 1.6h.4l-3-.4-1.5-.3-1.5-.3-1.5-.4-.7-.2h-.7l-1.5-.4-.7-.2-.7-.3a54.5 54.5 0 0 1-6.8-3.3l-.8-.4a51.8 51.8 0 0 1-8.2-6.2l-1.2-1.1-.6-.6-.6-.6-1.1-1.2-.5-.6-.5-.6-1-1.2-1-1.3-.5-.7-.4-.7-1-1.3-.8-1.4-.8-1.4-.8-1.4-.2-.4-.2-.4-.3-.7-.3-.7-.2-.3v-.2h-.1l-.6-1.5-.3-.7-.3-.7-.5-1.5-.2-.8-.2-.8-.2-.8v-.8l-.4-1.6v-.8l-.2-.8-.2-1.2-.2-1.2-.2-1.2c-.1-.4-.1-.8-.1-1.2A44 44 0 0 1 4 46.7a51.6 51.6 0 0 1 2.6-10l.2-.6a51.7 51.7 0 0 1 2.1-5l.2-.4.2-.3.4-.7.4-.7.2-.3.2-.3c.5-.9 1.1-1.8 1.6-2.7l.9-1.3.9-1.3.5-.6.5-.6 1-1.2 1.1-1.3.6-.6.6-.6 1.2-1.2 1.2-1.2.6-.6.7-.5 1.3-1.1 1.4-1 .7-.5.7-.5a51.9 51.9 0 0 1 8.8-4.8l1.2-.5.6-.2.6-.2 1.2-.4 1.2-.4 1.2-.4 1.2-.3 1-.4h1.2l2.1-.4 2-.3h14l2 .3 2 .4 2 .5.6.2 1.9.5 2 .7 1 .4 1 .4 1.9.9.8.4.8.4.8.5.8.5 1.2.7a51.3 51.3 0 0 1 6.3 5.3l1.6 1 1.3 1.4a51.4 51.4 0 0 1 10.4 17.8l.2.7.2.7.4 1.3.2.7.2.7.3 1.3v1.5l.3 1.5.2 1.5c.1.5.1 1 .2 1.5.2 2.4.3 4 .4 4.6s.2.2.2-1.3v-4.6a37.1 37.1 0 0 0-1.3-7.4 53.1 53.1 0 0 0-4.6-11.4 54 54 0 0 0-7.1-10 56.7 56.7 0 0 0-5.5-5.3 50 50 0 0 0-6.1-4.3l-.5-.3-.7-.4-.7-.4-.3-.2-.4-.2-2.9-1.4A46.4 46.4 0 0 0 62.9 1L61.2.7h-1.8L56.1.1h-9.6l-1.6.4h-1.7l-1.6.5-1.6.4-3.2.8-.8.2-.8.3-.8.3h-.8l-1.9 1-1.9.9-4 2.1-.7.4-.6.4-1 .7-.4.3-.4.3-.6.5c-.7.6-.5.5.7-.2a60.1 60.1 0 0 1 7.5-4.1A55.9 55.9 0 0 1 49.2.4h8.1l2.4.3 2.2.4 1.2.3 1.3.3 1.3.3 1.3.4.6.2.6.2 1.2.4 2.3.9a48.1 48.1 0 0 1 7.4 3.8H79a53.7 53.7 0 0 0-6-2.5l-1.6-.6h-.8l-.8-.3-.8-.4h-.8l-1.6-.4-1-.2a59.4 59.4 0 0 0-9.8-1.3 40.1 40.1 0 0 0-11.4.9h-.3A51.2 51.2 0 0 0 37.3 5L34 6h-.4l-.4.2-.8.4-1.6.8-1.6.8-.8.4-.8.5-.8.5-.7.5-1.5 1-1.4 1.1-.7.5-.7.6-1.4 1.1-1.3 1.2-.6.6-.6.6-1.1 1.2-1.1 1.2-.6.6-.5.6a53.4 53.4 0 0 0-6 9 48.6 48.6 0 0 0-3.5 8.4 54.8 54.8 0 0 0-1.9 8.9L3 48.5v3.3c0 .6 0 1.2-.1 1.8s0 1.6 0 2.4.1 1.7.2 2.5.2 1.7.3 2.6v1.3l.2 1.3v.7l.2.7.3 1.4v.7l.2.7.4 1.4.8 2.3v.6l.2.6.5 1.1.2.6.3.5.5 1.1c.3.7.7 1.4 1.1 2.1S9.4 80.1 10 81l.2.3.2.3.5.7.5.7.5.7 2 2.6 1 1.3 1.1 1.2A48.2 48.2 0 0 0 31 100l1.4.6.3.2h.4l.7.3 1.4.6 1.4.5.7.2.7.2 1.4.4h.7l.7.2 1.4.4a52.3 52.3 0 0 0 5.8 1 51.1 51.1 0 0 0 18.6-1.4l1-.3 1-.3 1-.3 1-.4.9-.4.5-.2.5-.2 1.9-.9h-.2z"></path><path d="M105.6 44v-.7l-.2-.7-.4-1.5-.2-.7-.2-.7-.4-1.5v-.7l-.3-.7-.5-1.4-.6-1.4-.3-.7V33l-.2-.4-1-2-1.1-1.9-.6-1c-.1-.1-.1-.1 0 .2l.6 1.2.5 1 .3.7.3.7.6 1.4.3.7.3.7.6 1.4.5 1.4.5 1.4.4 1.4.2.7.2.7.3 1 .2 1 .4 2.1c.2 1.4.4 2.7.6 3.7s.1.9.1 1.3 0 1.1.1 1.7v6.5l-.2 1.4c-.1.5-.2 1-.2 1.4l-.2 1.4-.3 1.5-.3 1.5c-.1.5-.5 2-.8 3l-.4 1.2-.4 1.2-.4 1.2-.5 1.2-.5 1.2-.5 1.1-.5 1.1-.6 1.1-.6 1.1-.7 1.1-.4.6-.4.6-.8 1.1-.5.7-.6.7-.6.7-.6.8-1.6 1.8-.6.7-.6.7a55.3 55.3 0 0 1-14.9 11.6l-2.4 1.3 1.5-.6.8-.3.8-.4 1.7-.9 1.8-1 .5-.3.5-.3 1-.7 2-1.4a57.2 57.2 0 0 0 6.4-5.8 50.4 50.4 0 0 0 6.9-9.2l.5-.8.5-.8.5-.9.4-.9.8-1.7.4-.9.4-.9a55.2 55.2 0 0 0 2.4-7.3l.2-.7V65l.2-1.2v-9.4a52.3 52.3 0 0 0-.1-10.4z"></path><circle cx="92.2" cy="23.5" r=".7"></circle><circle cx="98.8" cy="25.4" r=".5"></circle><circle cx="10.6" cy="73.3" r="1.1"></circle><circle cx="12.4" cy="88.2" r=".7"></circle><circle cx="15.4" cy="90.4" r=".7"></circle><circle cx="19.8" cy="10.8" r=".7"></circle><circle cx="74.1" cy="102.8" r=".5"></circle><circle cx="93" cy="18.1" r=".7"></circle></g></g><g id="SvgjsG1118" featureKey="sloganFeature-0" transform="matrix(1.0443864437807735,0,0,1.0443864437807735,73.0000007470034,166.92428074778027)" fill="#ffffff"><path d="M14.4 5 l-3.44 15 l-1.28 0 l-2.5 -12.24 l-2.48 12.24 l-1.26 0 l-3.44 -15 l1.44 0 l2.52 12 l2.76 -11.96 l-0.02 -0.04 l0.02 0 l0.96 0 l0.11 0.49 c0.07334 0.32666 0.17 0.75332 0.29 1.28 s0.25666 1.1333 0.41 1.82 s0.31334 1.39 0.48 2.11 s0.33 1.4333 0.49 2.14 s0.30666 1.35 0.44 1.93 s0.24668 1.07 0.34002 1.47 s0.15334 0.65334 0.18 0.76 l2.52 -12 l1.46 0 z M25.9605 20 l-7.5 0 l0 -15 l7.36 0 l0 1.52 l-5.98 0 l0 5.16 l5.94 0 l0 1.3 l-5.94 0 l0 5.5 l6.12 0 l0 1.52 z M38.621 15.54 c0 1.4 -0.39336 2.4934 -1.18 3.28 s-1.88 1.18 -3.28 1.18 l-3.44 0 l0 -15 l2.98 0 c1.32 0 2.3366 0.32334 3.05 0.97 s1.07 1.6367 1.07 2.97 c0 0.56 -0.15334 1.0833 -0.46 1.57 s-0.67332 0.90332 -1.1 1.25 c0.68 0.44 1.2433 0.96666 1.69 1.58 s0.67 1.3467 0.67 2.2 z M36.501 8.94 c0 -0.73334 -0.2 -1.3434 -0.6 -1.83 s-0.98666 -0.73 -1.76 -0.73 l-2.04 0 l0 4.86 l2.24 0 c0.32 0 0.61 -0.06334 0.87 -0.19 s0.48666 -0.29332 0.68 -0.49998 s0.34334 -0.45 0.45 -0.73 s0.16 -0.57334 0.16 -0.88 z M37.281 15.620000000000001 c0 -0.96 -0.26664 -1.7033 -0.79998 -2.23 s-1.2733 -0.79 -2.22 -0.79 l-2.16 0 l0 5.98 l1.84 0 c0.46666 0 0.90332 -0.06 1.31 -0.18 s0.76 -0.3 1.06 -0.54 s0.53666 -0.54666 0.71 -0.92 s0.26 -0.81334 0.26 -1.32 z M57.482 12.18 c0 0.49334 0.0033984 1.03 0.010059 1.61 s-0.01668 1.16 -0.07002 1.74 s-0.15 1.14 -0.29 1.68 s-0.35666 1.0167 -0.65 1.43 s-0.67668 0.74334 -1.15 0.99 s-1.0633 0.37 -1.77 0.37 l-3.64 0 l0 -15 l3.5 0 c0.73334 0 1.34 0.10334 1.82 0.31 s0.87334 0.48666 1.18 0.84 s0.53332 0.76668 0.67998 1.24 s0.24666 0.97668 0.3 1.51 s0.08 1.08 0.08 1.64 l0 1.64 z M56.122 12.32 l0.000019531 -0.85996 c0 -0.37334 -0.01 -0.76 -0.03 -1.16 s-0.04666 -0.78 -0.08 -1.14 s-0.07668 -0.62666 -0.13002 -0.8 c-0.22666 -0.66666 -0.54 -1.16 -0.94 -1.48 s-0.96 -0.48 -1.68 -0.48 l-2 0 l0 12.16 l2.26 0 c0.29334 0 0.56 -0.05334 0.8 -0.16 s0.46 -0.25 0.66 -0.43 s0.37 -0.38666 0.51 -0.62 s0.25666 -0.47668 0.35 -0.73002 c0.06666 -0.17334 0.11666 -0.45668 0.15 -0.85002 s0.06 -0.81 0.08 -1.25 s0.03334 -0.86334 0.04 -1.27 s0.01 -0.71666 0.01 -0.93 z M69.80250000000001 20 l-7.5 0 l0 -15 l7.36 0 l0 1.52 l-5.98 0 l0 5.16 l5.94 0 l0 1.3 l-5.94 0 l0 5.5 l6.12 0 l0 1.52 z M82.763 5 l-4.08 15 l-1.14 0 l-4.06 -15 l1.42 0 l3.2 12.32 l3.28 -12.32 l1.38 0 z M94.3635 20 l-7.5 0 l0 -15 l7.36 0 l0 1.52 l-5.98 0 l0 5.16 l5.94 0 l0 1.3 l-5.94 0 l0 5.5 l6.12 0 l0 1.52 z M105.304 20 l-6.18 0 l0 -15 l1.4 0 l0 13.56 l4.78 0 l0 1.44 z M116.9845 16.12 c0 1.4133 -0.31666 2.4434 -0.95 3.09 s-1.6633 0.97 -3.09 0.97 c-1.3067 0 -2.2634 -0.36 -2.87 -1.08 s-0.91 -1.7133 -0.91 -2.98 l0 -7.2 c0 -1.3733 0.32334 -2.3934 0.97 -3.06 s1.6633 -1 3.05 -1 c1.32 0 2.2834 0.35 2.89 1.05 s0.91 1.69 0.91 2.97 l0 7.24 z M115.58449999999999 16.08 l-0.000019531 -7.22 c0 -0.76 -0.2 -1.3933 -0.6 -1.9 s-1.0067 -0.76 -1.82 -0.76 c-0.97334 0 -1.65 0.25334 -2.03 0.76 s-0.57 1.22 -0.57 2.14 l0 6.9 c0 0.38666 0.04334 0.75 0.13 1.09 s0.22666 0.63666 0.42 0.89 s0.44 0.45334 0.74 0.6 s0.66334 0.22 1.09 0.22 c0.93334 0 1.6067 -0.22666 2.02 -0.68 s0.62 -1.1333 0.62 -2.04 z M129.885 9.8 c0 0.66666 -0.10662 1.2867 -0.31996 1.86 s-0.51334 1.07 -0.9 1.49 s-0.86 0.75 -1.42 0.99 s-1.18 0.36 -1.86 0.36 l-1.86 0 l0 5.5 l-1.5 0 l0 -15 l3.64 0 c0.73334 0 1.3633 0.12334 1.89 0.37 s0.96332 0.58332 1.31 1.01 s0.60332 0.93332 0.76998 1.52 s0.25 1.22 0.25 1.9 z M128.36499999999998 9.76 c0 -1.08 -0.22334 -1.91 -0.67 -2.49 s-1.25 -0.87 -2.41 -0.87 l-1.76 0 l0 6.64 l1.56 0 c1.08 0 1.8967 -0.28 2.45 -0.84 s0.83 -1.3733 0.83 -2.44 z M142.0855 20 l-7.5 0 l0 -15 l7.36 0 l0 1.52 l-5.98 0 l0 5.16 l5.94 0 l0 1.3 l-5.94 0 l0 5.5 l6.12 0 l0 1.52 z M155.346 20 l-1.72 -0.000019531 l-3.14 -6.06 l-2.6 0 l0 6.06 l-1.34 0 l0 -15 l3.44 0 c1.3733 0 2.46 0.39334 3.26 1.18 s1.2 1.8667 1.2 3.24 c0 0.42666 -0.05666 0.86 -0.17 1.3 s-0.27668 0.85334 -0.49002 1.24 s-0.47668 0.73666 -0.79002 1.05 s-0.67 0.55668 -1.07 0.73002 z M153.02599999999998 9.32 c0 -0.46666 -0.08 -0.88664 -0.24 -1.26 s-0.38 -0.69 -0.66 -0.95 s-0.61334 -0.46 -1 -0.6 s-0.80666 -0.21 -1.26 -0.21 l-1.98 0 l0 6.26 l2.1 0 c1.0667 0 1.84 -0.28666 2.32 -0.86 s0.72 -1.3667 0.72 -2.38 z"></path></g><g id="SvgjsG1119" featureKey="nameLeftFeature-0" transform="matrix(1.073170881481294,0,0,1.073170881481294,53.71219514691355,109.84390089135997)" fill="#ffffff"><path d="M1.2 30.240000000000002 l4.04 0 c0.08 5.16 0.48 6.16 1.92 6.16 c1.96 0 1.96 -1.64 1.96 -6 c0 -6.4 -7.92 -4.68 -7.92 -13.2 c0 -5 0 -9.6 6 -9.6 c4.44 0 5.64 2.52 5.92 8.56 l-4 0 c-0.16 -4.36 -0.64 -5.36 -1.92 -5.36 c-1.96 0 -1.96 2.16 -1.96 6.4 c0 6.2 7.96 4 7.96 13.2 c0 5.6 0 10 -6.04 10 c-4.64 0 -5.72 -2.76 -5.96 -10.16 z M18.4 40 l0 -32 l9.2 0 l0 3.2 l-5.2 0 l0 10.4 l4.4 0 l0 3.2 l-4.4 0 l0 11.2 l5.2 0 l0 4 l-9.2 0 z M32.4 40 l0 -16.8 c0 -11.16 0 -15.56 6 -15.56 s6 4.4 6 15.56 l0 16.8 l-4 0 l0 -9.2 l-4 0 l0 9.2 l-4 0 z M36.4 27.6 l4 0 l0 -4.4 c0 -10.4 0 -12.36 -2 -12.36 s-2 1.96 -2 12.36 l0 4.4 z M50.4 40 l0 -32 l3.6 0 l5.24 19.6 l-0.04 -0.4 l0 -19.2 l4 0 l0 32 l-3.6 0 l-5.24 -17.6 l0.04 0.4 l0 17.2 l-4 0 z"></path></g><g id="SvgjsG1120" featureKey="inlineMonogramFeature-0" transform="matrix(2.9812876276764375,0,0,2.9812876276764375,140.47515524933482,97.57189329555067)" fill="#0295fe"><path d="M2.9644 15.4918 c-0.11461 0 -0.2288 -0.03461 -0.35058 -0.105 l-1.7504 -1.0118 c-0.2434 -0.1408 -0.3506 -0.3266 -0.3506 -0.6078 l0 -6.5134 c0 -0.2812 0.10721 -0.467 0.3506 -0.6078 l1.8386 -1.0628 c0.076796 -0.046192 0.1666 -0.072794 0.2626 -0.072794 c0.2816 0 0.51 0.2284 0.51 0.51 c0 0.19199 -0.10619 0.3592 -0.26298 0.4462 l-1.679 0.9704 l0 6.1464 l1.432 0.8276 l3.6212 -2.0932 c0.076796 -0.046192 0.1666 -0.072794 0.2626 -0.072794 c0.2816 0 0.51 0.2284 0.51 0.51 c0 0.19199 -0.10619 0.3592 -0.26298 0.4462 l-3.78 2.185 c-0.1218 0.07039 -0.2364 0.10559 -0.35102 0.10559 z M2.9648 19.982383 l0.0010742 0.00019531 c-0.11461 0 -0.22922 -0.035196 -0.35102 -0.10559 l-1.7504 -1.0118 c-0.2434 -0.1408 -0.3502 -0.3266 -0.35058 -0.6078 l-0.0024024 -2.1362 c0 -0.2752 0.2286 -0.5074 0.5096 -0.5074 c0.086602 0 0.1742 0.021992 0.25458 0.068398 l1.6892 0.9746 l1.6794 -0.9708 c0.076796 -0.046192 0.1666 -0.072794 0.2626 -0.072794 c0.2816 0 0.51 0.2284 0.51 0.51 c0 0.19199 -0.10619 0.3592 -0.26298 0.4462 l-1.838 1.0624 c-0.1218 0.07039 -0.2364 0.10559 -0.35102 0.10559 s-0.22922 -0.035196 -0.35102 -0.10559 l-1.081 -0.6248 l0 1.0668 l1.432 0.8278 l3.3738 -1.9502 l0 -1.9508 c0 -0.2816 0.2284 -0.51 0.51 -0.51 s0.51 0.2284 0.51 0.51 l0 2.1342 c0 0.2812 -0.10721 0.467 -0.3506 0.6058 l-3.6922 2.1362 c-0.1218 0.07039 -0.2364 0.10559 -0.35102 0.10559 z M6.8498 20.00078126 c-0.2816 0 -0.51082 -0.22898 -0.51082 -0.51058 c0 -0.19199 0.10619 -0.3592 0.26298 -0.4462 l1.679 -0.9704 l0 -6.1464 l-1.432 -0.8276 l-1.6794 0.9706 c-0.076602 0.046192 -0.16641 0.072794 -0.2624 0.072794 c-0.2816 0 -0.51 -0.2284 -0.51 -0.51 c0 -0.19199 0.10619 -0.3592 0.26298 -0.4462 l1.838 -1.0624 c0.1218 -0.07039 0.2364 -0.10559 0.35102 -0.10559 s0.22922 0.035196 0.35102 0.10559 l1.7504 1.0118 c0.2436 0.1408 0.3508 0.3266 0.3508 0.6078 l0 6.5134 c0 0.2812 -0.10721 0.467 -0.3506 0.6078 l-1.8386 1.0628 c-0.076602 0.046192 -0.16641 0.072794 -0.2624 0.072794 z M2.965 13.2652 c-0.2816 0 -0.51066 -0.22862 -0.51066 -0.51022 l0 -2.1342 c0 -0.2812 0.10721 -0.467 0.3506 -0.6078 l3.6922 -2.1342 c0.1218 -0.07039 0.2364 -0.10559 0.35102 -0.10559 s0.22922 0.035196 0.35102 0.10559 l1.081 0.6248 l0 -1.0668 l-1.432 -0.8278 l-3.6212 2.0932 c-0.076796 0.046192 -0.1666 0.072794 -0.2626 0.072794 c-0.2816 0 -0.51 -0.2284 -0.51 -0.51 c0 -0.19199 0.10619 -0.3592 0.26298 -0.4462 l3.78 -2.185 c0.1218 -0.07039 0.2364 -0.10559 0.35102 -0.10559 s0.22922 0.035196 0.35102 0.10559 l1.7504 1.0118 c0.2436 0.1408 0.3508 0.3266 0.3508 0.6078 l0 2.3124 c0 0.2844 -0.1266 0.44298 -0.3232 0.44298 c-0.084394 0 -0.1818 -0.0292 -0.2876 -0.09039 l-1.841 -1.0642 l-3.3738 1.9502 l0 1.9508 c0 0.2816 -0.2284 0.51 -0.51 0.51 z"></path></g><g id="SvgjsG1121" featureKey="nameRightFeature-0" transform="matrix(1.0877626494463033,0,0,1.0877626494463033,174.07663891698436,109.68949298477658)" fill="#ffffff"><path d="M12.8 40 l0 -16.8 c0 -11.16 0 -15.56 6 -15.56 s6 4.4 6 15.56 l0 16.8 l-4 0 l0 -9.2 l-4 0 l0 9.2 l-4 0 z M16.8 27.6 l4 0 l0 -4.4 c0 -10.4 0 -12.36 -2 -12.36 s-2 1.96 -2 12.36 l0 4.4 z M30.8 40 l0 -32 l3.6 0 l5.24 19.6 l-0.04 -0.4 l0 -19.2 l4 0 l0 32 l-3.6 0 l-5.24 -17.6 l0.04 0.4 l0 17.2 l-4 0 z M49.6 40 l0 -32 l4 0 l0 32 l-4 0 z M59.6 40 l0 -32 l4 0 l0 13.6 l4 0 l0 -13.6 l4 0 l0 32 l-4 0 l0 -15.2 l-4 0 l0 15.2 l-4 0 z"></path></g>
			</g>
		</svg>
	